<svg width="42" height="42" viewBox="0 0 42 42" fill="none" xmlns="http://www.w3.org/2000/svg">
<path d="M41.6091 0.388276C41.7942 0.573709 41.9208 0.809452 41.9731 1.06622C42.0254 1.32299 42.0011 1.58946 41.9033 1.83254L26.3419 40.7395C26.2048 41.0821 25.9758 41.3803 25.6801 41.6012C25.3845 41.822 25.0336 41.957 24.6662 41.9913C24.2987 42.0256 23.929 41.9579 23.5976 41.7955C23.2662 41.6332 22.986 41.3825 22.7878 41.0712L14.2891 27.7117L0.931313 19.2119C0.619277 19.0139 0.367989 18.7336 0.205177 18.4018C0.0423655 18.0701 -0.0256412 17.6998 0.00866158 17.3318C0.0429644 16.9638 0.178243 16.6125 0.39957 16.3166C0.620898 16.0206 0.91967 15.7916 1.26292 15.6547L40.165 0.0967477C40.4081 -0.00110871 40.6745 -0.0253931 40.9312 0.0269113C41.188 0.0792157 41.4237 0.205804 41.6091 0.39095V0.388276ZM16.958 26.9307L24.3416 38.533L36.9987 6.88748L16.958 26.9307ZM35.108 4.99656L3.46649 17.6553L15.07 25.0371L35.108 4.99656Z" fill="white"/>
</svg>
